<?xml version="1.0"?>
<svg xmlns="http://www.w3.org/2000/svg" xmlns:xlink="http://www.w3.org/1999/xlink" viewBox="0 0 512 512" width="512" height="512"><defs><linearGradient id="linear-gradient" x1="86.13" y1="477.381" x2="444.357" y2="119.154" gradientUnits="userSpaceOnUse"><stop offset="0" stop-color="#509b9a"/><stop offset="1" stop-color="#6BD5D3"/></linearGradient></defs><g id="gradient"><path d="M416,400H358.573c10.721-16.849,29.859-46.926,40.507-63.668a84.851,84.851,0,0,0,4.314-83.369l-5.048-10.123a85.012,85.012,0,0,0-6.362-10.7c0-.051.016-.091.016-.144V76.64a24.137,24.137,0,0,0-18.489-23.308L258.5,26.3a24.092,24.092,0,0,0-22.476,6.364l-49.68,49.68c-.034.034-.061.072-.095.107-.148.154-.291.316-.429.484-.052.063-.1.124-.155.189-.021.026-.044.05-.064.077l-24,32a8,8,0,0,0-1.568,5.517l1.245,13.838-29.888,63.426a121.124,121.124,0,0,0-11.3,47.817A19.8,19.8,0,0,0,120,248v45.931L63.156,396.44a54.227,54.227,0,0,0-5.863,38.709l.2.876c6.585,29.632,30.26,42.155,52.809,42.155a61.153,61.153,0,0,0,6.437-.341c21.635-2.3,54.928-9.366,79.088-14.895A39.765,39.765,0,0,0,192,480v8a8,8,0,0,0,8,8H416a48,48,0,0,0,0-96Zm-20.9-96.388-1.088,2.69a35.591,35.591,0,0,1-27.276,21.8A8,8,0,0,0,367.99,344a8.081,8.081,0,0,0,1.271-.1,50.635,50.635,0,0,0,7.116-1.687c-14.062,22.1-32.588,51.218-37.742,59.317l-77.1,30.84-30.571,7.644c-.332.008-.66.033-.991.05l-20.608-68.7L259.8,337.7a45.349,45.349,0,0,0,13.215-13.556c4.485,5.359,10.851,9.358,18.895,12.04a26.956,26.956,0,0,0,3.76.822,8,8,0,0,0,2.527-15.592L296.965,321a25.26,25.26,0,0,1-16.925-19.708l4.195-11.59a115,115,0,0,0,6.988-39.764l15.257,18.286a32.653,32.653,0,0,0,57.76-20.865,32.968,32.968,0,0,0-2.333-12.173L355.188,218.4l11.317,9.431,0,0a68.366,68.366,0,0,1,17.519,22.143l5.049,10.124A69.179,69.179,0,0,1,395.1,303.612ZM231.762,134.063l-6.287-25.2A23.946,23.946,0,0,0,237,103.847l22.951-18.361A55.71,55.71,0,0,0,248,120v32a56.1,56.1,0,0,0,39.248,53.438l-10.8,10.8-95.73,6.838,25.984-58.465,22.95-22.949A8,8,0,0,0,231.762,134.063Zm75.667,73.822A55.593,55.593,0,0,0,331,201.041L347.039,241.1a16.99,16.99,0,0,1,1.2,6.262c0,10.279-8.679,16.64-16.72,16.64a16.707,16.707,0,0,1-12.737-6l-27.957-33.507ZM304,192a40.045,40.045,0,0,1-40-40V140.944l11.578-5.789A62.093,62.093,0,0,0,299.1,114.5L344,136.944V152A40.045,40.045,0,0,1,304,192Zm-4.422-95.155a8,8,0,0,0-10.733,3.577,45.953,45.953,0,0,1-20.423,20.423L264,123.056V120a39.994,39.994,0,0,1,79.976-.956ZM304,64a55.658,55.658,0,0,0-23.755,5.3,15.985,15.985,0,0,1,29.791-4.973A56.5,56.5,0,0,0,304,64ZM273.628,232.475a99.207,99.207,0,0,1-1.451,42.062,45.539,45.539,0,0,0-12.368-12.306l-.089-.058a35.117,35.117,0,0,0-21.058-5.6L176,260.8V239.449ZM173.466,310.956A24.114,24.114,0,0,0,176,300.223V276.839l63.649-4.292a19.038,19.038,0,0,1,11.309,3.014,29.4,29.4,0,0,1,13.026,23.922c-.035.712-.06,1.286-.063,1.4a29.014,29.014,0,0,1-13,23.506L195.86,361.145l-65.3,35.617ZM376,76.64V214.92l-30.472-25.394A55.773,55.773,0,0,0,360,152V120a56.065,56.065,0,0,0-32.118-50.639,31.744,31.744,0,0,0-2.946-11.01l44.927,10.56A8,8,0,0,1,376,76.64ZM247.337,43.978a7.982,7.982,0,0,1,7.473-2.11L276.193,46.9a32.061,32.061,0,0,0-11.2,17.185A7.989,7.989,0,0,0,259,65.753L226.99,91.362a7.908,7.908,0,0,1-8.532.923l-12.953-6.476Zm-70.66,95.432a8.005,8.005,0,0,0,.731-4.127l-1.165-12.94,18.151-24.2,13.615,6.807,7.133,28.6-20.8,20.8a8.011,8.011,0,0,0-1.654,2.408L162.8,224H144a24,24,0,0,0-5.026.534,105.8,105.8,0,0,1,6.9-19.763ZM115.041,461.929c-15.955,1.693-36.513-4.977-41.934-29.376l-.195-.876a38.251,38.251,0,0,1,4.161-27.342l.052-.092L135,299.88a8,8,0,0,0,1-3.88V248a8.009,8.009,0,0,1,8-8h16v60.223a8.046,8.046,0,0,1-.844,3.577L104.845,412.422a8,8,0,0,0,10.986,10.6l79.341-43.277,18.746,62.488C194.176,447.01,143.3,458.921,115.041,461.929ZM416,480H208a24.028,24.028,0,0,1,24-24,7.977,7.977,0,0,0,1.94-.239L264.983,448H400a8,8,0,0,0,0-16H305.541l40-16H416a32,32,0,0,1,0,64ZM336,144a8,8,0,0,1-8,8H312v16a8,8,0,0,1-16,0V144a8,8,0,0,1,8-8h24A8,8,0,0,1,336,144ZM55.289,355.561A224.133,224.133,0,0,1,173.034,47.869a8,8,0,0,1,5.929,14.861A208.184,208.184,0,0,0,69.617,348.439a8,8,0,1,1-14.328,7.122ZM410.078,116.27a8,8,0,1,1,11.849-10.752,224.045,224.045,0,0,1,16.588,280.374,8,8,0,1,1-13.028-9.288A208.045,208.045,0,0,0,410.078,116.27Z" style="fill:url(#linear-gradient)"/></g></svg>
